<svg width="24" height="24" viewBox="0 0 24 24" fill="none" xmlns="http://www.w3.org/2000/svg">
<path d="M22.5256 4.2324C23.2839 3.47535 23.2839 2.24793 22.5256 1.49088C21.7674 0.733834 20.538 0.733834 19.7798 1.49088L12 9.25849L4.22016 1.49088C3.46193 0.733835 2.23258 0.733835 1.47434 1.49088C0.716104 2.24793 0.716105 3.47535 1.47434 4.2324L9.25416 12L1.47432 19.7676C0.716081 20.5247 0.71608 21.7521 1.47432 22.5092C2.23256 23.2662 3.4619 23.2662 4.22014 22.5092L12 14.7415L19.7798 22.5092C20.5381 23.2662 21.7674 23.2662 22.5256 22.5092C23.2839 21.7521 23.2839 20.5247 22.5256 19.7676L14.7458 12L22.5256 4.2324Z" fill="white"/>
</svg>
