<svg width="43" height="37" viewBox="0 0 43 37" fill="none" xmlns="http://www.w3.org/2000/svg">
<path d="M10.7123 28.3C8.81232 28.3 7.18232 27.99 5.82232 27.37C4.48232 26.75 3.43232 25.84 2.67232 24.64C1.93232 23.44 1.52232 21.95 1.44232 20.17C1.42232 19.35 1.41232 18.47 1.41232 17.53C1.41232 16.59 1.42232 15.69 1.44232 14.83C1.52232 13.09 1.94232 11.62 2.70232 10.42C3.46232 9.2 4.52232 8.28 5.88232 7.66C7.24232 7.02 8.85232 6.7 10.7123 6.7C12.0323 6.7 13.2523 6.87 14.3723 7.21C15.4923 7.53 16.4723 8.01 17.3123 8.65C18.1523 9.27 18.8023 10.03 19.2623 10.93C19.7423 11.81 19.9923 12.81 20.0123 13.93C20.0323 14.11 19.9723 14.26 19.8323 14.38C19.7123 14.5 19.5623 14.56 19.3823 14.56H15.3323C15.0723 14.56 14.8723 14.51 14.7323 14.41C14.5923 14.29 14.4723 14.08 14.3723 13.78C14.0923 12.72 13.6323 12 12.9923 11.62C12.3723 11.22 11.6023 11.02 10.6823 11.02C9.58232 11.02 8.71232 11.33 8.07232 11.95C7.43232 12.55 7.08232 13.56 7.02232 14.98C6.96232 16.62 6.96232 18.3 7.02232 20.02C7.08232 21.44 7.43232 22.46 8.07232 23.08C8.71232 23.68 9.58232 23.98 10.6823 23.98C11.6023 23.98 12.3823 23.78 13.0223 23.38C13.6623 22.98 14.1123 22.26 14.3723 21.22C14.4523 20.92 14.5623 20.72 14.7023 20.62C14.8623 20.5 15.0723 20.44 15.3323 20.44H19.3823C19.5623 20.44 19.7123 20.5 19.8323 20.62C19.9723 20.74 20.0323 20.89 20.0123 21.07C19.9923 22.19 19.7423 23.2 19.2623 24.1C18.8023 24.98 18.1523 25.74 17.3123 26.38C16.4723 27 15.4923 27.48 14.3723 27.82C13.2523 28.14 12.0323 28.3 10.7123 28.3ZM28.6101 28C28.2701 28 28.0001 27.91 27.8001 27.73C27.6001 27.55 27.4601 27.34 27.3801 27.1L21.2601 7.9C21.2201 7.8 21.2001 7.71 21.2001 7.63C21.2001 7.47 21.2601 7.33 21.3801 7.21C21.5201 7.07 21.6801 7 21.8601 7H25.5801C25.9001 7 26.1501 7.09 26.3301 7.27C26.5101 7.45 26.6201 7.62 26.6601 7.78L30.8901 21.64L35.1501 7.78C35.2101 7.62 35.3201 7.45 35.4801 7.27C35.6601 7.09 35.9101 7 36.2301 7H39.9501C40.1301 7 40.2801 7.07 40.4001 7.21C40.5401 7.33 40.6101 7.47 40.6101 7.63C40.6101 7.71 40.5901 7.8 40.5501 7.9L34.4301 27.1C34.3501 27.34 34.2101 27.55 34.0101 27.73C33.8301 27.91 33.5601 28 33.2001 28H28.6101Z" fill="white"/>
</svg>
