<svg width="41" height="40" viewBox="0 0 41 40" fill="none" xmlns="http://www.w3.org/2000/svg">
<g clip-path="url(#clip0_215_178)">
<path d="M33.864 6.92598C31.3145 5.75617 28.5806 4.89431 25.7221 4.40069C25.6701 4.39116 25.6181 4.41497 25.5913 4.46259C25.2397 5.08795 24.8502 5.90378 24.5775 6.54502C21.503 6.08474 18.4443 6.08474 15.4329 6.54502C15.1601 5.88953 14.7565 5.08795 14.4033 4.46259C14.3765 4.41656 14.3245 4.39275 14.2724 4.40069C11.4155 4.89274 8.68159 5.7546 6.13054 6.92598C6.10846 6.9355 6.08953 6.95138 6.07697 6.972C0.891306 14.7193 -0.529264 22.2761 0.16762 29.7393C0.170773 29.7758 0.191269 29.8107 0.219649 29.8329C3.641 32.3455 6.95516 33.8708 10.2078 34.8819C10.2598 34.8978 10.315 34.8787 10.3481 34.8358C11.1175 33.7851 11.8034 32.6772 12.3914 31.5122C12.4261 31.4439 12.393 31.363 12.3221 31.336C11.2342 30.9233 10.1983 30.4202 9.20187 29.8488C9.12305 29.8028 9.11674 29.69 9.18925 29.6361C9.39894 29.4789 9.60869 29.3154 9.80891 29.1504C9.84514 29.1202 9.89561 29.1139 9.93821 29.1329C16.4845 32.1217 23.5716 32.1217 30.0406 29.1329C30.0832 29.1123 30.1336 29.1187 30.1714 29.1488C30.3717 29.3139 30.5814 29.4789 30.7927 29.6361C30.8652 29.69 30.8605 29.8028 30.7816 29.8488C29.7852 30.4313 28.7493 30.9233 27.6598 31.3344C27.5889 31.3614 27.5574 31.4439 27.5921 31.5122C28.1927 32.6756 28.8786 33.7835 29.6338 34.8343C29.6654 34.8787 29.7221 34.8978 29.7741 34.8819C33.0425 33.8708 36.3567 32.3455 39.778 29.8329C39.808 29.8107 39.8269 29.7774 39.8301 29.7408C40.6641 21.1126 38.4331 13.6178 33.916 6.97358C33.905 6.95138 33.8861 6.9355 33.864 6.92598ZM13.369 25.195C11.3981 25.195 9.77421 23.3856 9.77421 21.1634C9.77421 18.9413 11.3667 17.1319 13.369 17.1319C15.3871 17.1319 16.9953 18.9572 16.9638 21.1634C16.9638 23.3856 15.3713 25.195 13.369 25.195ZM26.6602 25.195C24.6894 25.195 23.0655 23.3856 23.0655 21.1634C23.0655 18.9413 24.6579 17.1319 26.6602 17.1319C28.6784 17.1319 30.2865 18.9572 30.2551 21.1634C30.2551 23.3856 28.6784 25.195 26.6602 25.195Z" fill="white"/>
</g>
<defs>
<clipPath id="clip0_215_178">
<rect width="40" height="40" fill="white" transform="translate(0.00231934)"/>
</clipPath>
</defs>
</svg>
