<svg width="67" height="42" viewBox="0 0 67 42" fill="none" xmlns="http://www.w3.org/2000/svg">
<path d="M3.42 34C3.156 34 2.94 33.916 2.772 33.748C2.604 33.58 2.52 33.364 2.52 33.1V9.7C2.52 9.436 2.604 9.22 2.772 9.052C2.94 8.884 3.156 8.8 3.42 8.8H7.236C7.644 8.8 7.932 8.896 8.1 9.088C8.292 9.256 8.412 9.388 8.46 9.484L17.244 23.344V9.7C17.244 9.436 17.328 9.22 17.496 9.052C17.664 8.884 17.88 8.8 18.144 8.8H22.464C22.728 8.8 22.944 8.884 23.112 9.052C23.28 9.22 23.364 9.436 23.364 9.7V33.1C23.364 33.34 23.28 33.556 23.112 33.748C22.944 33.916 22.728 34 22.464 34H18.612C18.228 34 17.94 33.904 17.748 33.712C17.58 33.52 17.472 33.388 17.424 33.316L8.64 19.996V33.1C8.64 33.364 8.556 33.58 8.388 33.748C8.22 33.916 8.004 34 7.74 34H3.42ZM30.1672 41.488C29.9272 41.488 29.7112 41.404 29.5192 41.236C29.3512 41.068 29.2672 40.852 29.2672 40.588V2.644C29.2672 2.38 29.3512 2.164 29.5192 1.996C29.7112 1.828 29.9272 1.744 30.1672 1.744H33.4072C33.6712 1.744 33.8872 1.828 34.0552 1.996C34.2232 2.164 34.3072 2.38 34.3072 2.644V40.588C34.3072 40.852 34.2232 41.068 34.0552 41.236C33.8872 41.404 33.6712 41.488 33.4072 41.488H30.1672ZM40.4747 34C40.2347 34 40.0187 33.916 39.8267 33.748C39.6587 33.58 39.5747 33.364 39.5747 33.1V9.7C39.5747 9.436 39.6587 9.22 39.8267 9.052C40.0187 8.884 40.2347 8.8 40.4747 8.8H44.3627C44.7467 8.8 45.0347 8.908 45.2267 9.124C45.4427 9.316 45.5747 9.472 45.6227 9.592L51.9587 20.968L58.2947 9.592C58.3667 9.472 58.4867 9.316 58.6547 9.124C58.8467 8.908 59.1467 8.8 59.5547 8.8H63.4067C63.6707 8.8 63.8867 8.884 64.0547 9.052C64.2467 9.22 64.3427 9.436 64.3427 9.7V33.1C64.3427 33.364 64.2467 33.58 64.0547 33.748C63.8867 33.916 63.6707 34 63.4067 34H59.1227C58.8587 34 58.6307 33.916 58.4387 33.748C58.2707 33.58 58.1867 33.364 58.1867 33.1V19.6L54.1187 27.124C54.0227 27.34 53.8787 27.532 53.6867 27.7C53.4947 27.868 53.2307 27.952 52.8947 27.952H51.0227C50.6867 27.952 50.4227 27.868 50.2307 27.7C50.0387 27.532 49.8827 27.34 49.7627 27.124L45.6947 19.6V33.1C45.6947 33.364 45.6107 33.58 45.4427 33.748C45.2747 33.916 45.0587 34 44.7947 34H40.4747Z" fill="#E7406A"/>
</svg>
