<svg width="39" height="40" viewBox="0 0 39 40" fill="none" xmlns="http://www.w3.org/2000/svg">
<path fill-rule="evenodd" clip-rule="evenodd" d="M19.476 1.25C9.16509 1.25 0.813721 9.82708 0.813721 20.4167C0.813721 28.8979 6.1558 36.0615 13.5741 38.601C14.5072 38.7687 14.8571 38.1937 14.8571 37.6906C14.8571 37.2354 14.8338 35.726 14.8338 34.1208C10.1449 35.0073 8.93181 32.9469 8.55857 31.8687C8.34862 31.3177 7.43883 29.6167 6.64568 29.1615C5.9925 28.8021 5.05939 27.9156 6.62236 27.8917C8.09201 27.8677 9.14176 29.2812 9.49168 29.8562C11.1713 32.7552 13.854 31.9406 14.9271 31.4375C15.0904 30.1917 15.5803 29.3531 16.1168 28.874C11.9644 28.3948 7.62545 26.7417 7.62545 19.4104C7.62545 17.326 8.34862 15.601 9.53834 14.2594C9.35171 13.7802 8.69853 11.8156 9.72496 9.18021C9.72496 9.18021 11.2879 8.67708 14.8571 11.1448C16.3501 10.7135 17.9364 10.4979 19.5227 10.4979C21.109 10.4979 22.6952 10.7135 24.1882 11.1448C27.7574 8.65312 29.3204 9.18021 29.3204 9.18021C30.3468 11.8156 29.6936 13.7802 29.507 14.2594C30.6967 15.601 31.4199 17.3021 31.4199 19.4104C31.4199 26.7656 27.0576 28.3948 22.9052 28.874C23.5817 29.4729 24.1649 30.6229 24.1649 32.4198C24.1649 34.9833 24.1416 37.0437 24.1416 37.6906C24.1416 38.1937 24.4915 38.7927 25.4246 38.601C32.7962 36.0615 38.1383 28.874 38.1383 20.4167C38.1383 9.82708 29.7869 1.25 19.476 1.25V1.25Z" fill="white"/>
</svg>
