<svg width="41" height="40" viewBox="0 0 41 40" fill="none" xmlns="http://www.w3.org/2000/svg">
<g clip-path="url(#clip0_215_177)">
<path fill-rule="evenodd" clip-rule="evenodd" d="M11.7569 0.12C13.8896 0.0218181 14.5696 0 20.0023 0C25.435 0 26.115 0.0236363 28.246 0.12C30.3769 0.216364 31.8314 0.556364 33.1041 1.04909C34.4369 1.55273 35.646 2.34 36.646 3.35818C37.6641 4.35636 38.4496 5.56364 38.9514 6.89818C39.446 8.17091 39.7841 9.62545 39.8823 11.7527C39.9805 13.8891 40.0023 14.5691 40.0023 20C40.0023 25.4327 39.9787 26.1127 39.8823 28.2455C39.786 30.3727 39.446 31.8273 38.9514 33.1C38.4496 34.4347 37.6628 35.644 36.646 36.6436C35.646 37.6618 34.4369 38.4473 33.1041 38.9491C31.8314 39.4436 30.3769 39.7818 28.2496 39.88C26.115 39.9782 25.435 40 20.0023 40C14.5696 40 13.8896 39.9764 11.7569 39.88C9.62959 39.7836 8.17505 39.4436 6.90232 38.9491C5.56763 38.4472 4.35836 37.6605 3.35868 36.6436C2.34119 35.6449 1.5538 34.4362 1.05141 33.1018C0.558683 31.8291 0.220501 30.3745 0.122319 28.2473C0.0241375 26.1109 0.00231934 25.4309 0.00231934 20C0.00231934 14.5673 0.0259557 13.8873 0.122319 11.7564C0.218683 9.62545 0.558683 8.17091 1.05141 6.89818C1.55454 5.56378 2.34254 4.35511 3.3605 3.35636C4.35876 2.33909 5.56681 1.55172 6.9005 1.04909C8.17323 0.556364 9.62777 0.218182 11.755 0.12H11.7569ZM28.0841 3.72C25.975 3.62364 25.3423 3.60364 20.0023 3.60364C14.6623 3.60364 14.0296 3.62364 11.9205 3.72C9.96959 3.80909 8.91141 4.13454 8.20596 4.40909C7.27323 4.77273 6.60596 5.20364 5.90596 5.90364C5.2424 6.54918 4.73174 7.33506 4.41141 8.20364C4.13686 8.90909 3.81141 9.96727 3.72232 11.9182C3.62596 14.0273 3.60596 14.66 3.60596 20C3.60596 25.34 3.62596 25.9727 3.72232 28.0818C3.81141 30.0327 4.13686 31.0909 4.41141 31.7964C4.73141 32.6636 5.24232 33.4509 5.90596 34.0964C6.55141 34.76 7.33868 35.2709 8.20596 35.5909C8.91141 35.8655 9.96959 36.1909 11.9205 36.28C14.0296 36.3764 14.6605 36.3964 20.0023 36.3964C25.3441 36.3964 25.975 36.3764 28.0841 36.28C30.035 36.1909 31.0932 35.8655 31.7987 35.5909C32.7314 35.2273 33.3987 34.7964 34.0987 34.0964C34.7623 33.4509 35.2732 32.6636 35.5932 31.7964C35.8678 31.0909 36.1932 30.0327 36.2823 28.0818C36.3787 25.9727 36.3987 25.34 36.3987 20C36.3987 14.66 36.3787 14.0273 36.2823 11.9182C36.1932 9.96727 35.8678 8.90909 35.5932 8.20364C35.2296 7.27091 34.7987 6.60364 34.0987 5.90364C33.4531 5.24013 32.6672 4.72947 31.7987 4.40909C31.0932 4.13454 30.035 3.80909 28.0841 3.72ZM17.4478 26.1655C18.8744 26.7593 20.463 26.8395 21.9422 26.3922C23.4214 25.945 24.6994 24.998 25.558 23.7132C26.4165 22.4283 26.8024 20.8852 26.6497 19.3475C26.4969 17.8097 25.8151 16.3727 24.7205 15.2818C24.0227 14.5845 23.1791 14.0506 22.2502 13.7184C21.3213 13.3863 20.3304 13.2643 19.3487 13.3611C18.367 13.4579 17.419 13.7712 16.5729 14.2784C15.7268 14.7856 15.0037 15.4741 14.4556 16.2943C13.9075 17.1145 13.5481 18.046 13.4033 19.0217C13.2584 19.9975 13.3317 20.9933 13.6178 21.9373C13.904 22.8813 14.3959 23.7502 15.0582 24.4813C15.7204 25.2124 16.5365 25.7876 17.4478 26.1655ZM12.7332 12.7309C13.6878 11.7763 14.8211 11.0191 16.0683 10.5025C17.3155 9.98585 18.6523 9.71995 20.0023 9.71995C21.3523 9.71995 22.6891 9.98585 23.9363 10.5025C25.1836 11.0191 26.3168 11.7763 27.2714 12.7309C28.226 13.6855 28.9832 14.8188 29.4998 16.066C30.0165 17.3132 30.2824 18.65 30.2824 20C30.2824 21.35 30.0165 22.6868 29.4998 23.934C28.9832 25.1812 28.226 26.3145 27.2714 27.2691C25.3435 29.197 22.7288 30.28 20.0023 30.28C17.2759 30.28 14.6611 29.197 12.7332 27.2691C10.8053 25.3412 9.72227 22.7264 9.72227 20C9.72227 17.2736 10.8053 14.6588 12.7332 12.7309ZM32.5623 11.2509C32.7989 11.0278 32.9882 10.7594 33.1192 10.4618C33.2502 10.1641 33.3202 9.84321 33.3249 9.51805C33.3296 9.19289 33.2691 8.87009 33.1468 8.56874C33.0246 8.2674 32.8431 7.99366 32.6132 7.76371C32.3832 7.53376 32.1095 7.35229 31.8081 7.23003C31.5068 7.10778 31.184 7.04723 30.8588 7.05197C30.5336 7.05671 30.2127 7.12664 29.9151 7.25763C29.6174 7.38862 29.3491 7.57799 29.126 7.81454C28.692 8.2746 28.4544 8.88567 28.4636 9.51805C28.4728 10.1504 28.7281 10.7543 29.1753 11.2015C29.6225 11.6487 30.2264 11.9041 30.8588 11.9133C31.4912 11.9225 32.1023 11.6849 32.5623 11.2509Z" fill="white"/>
</g>
<defs>
<clipPath id="clip0_215_177">
<rect width="40" height="40" fill="white" transform="translate(0.00231934)"/>
</clipPath>
</defs>
</svg>
