<svg width="41" height="40" viewBox="0 0 41 40" fill="none" xmlns="http://www.w3.org/2000/svg">
<path d="M7.91899 3.125C5.96298 3.125 4.37732 4.71066 4.37732 6.66667C4.37732 8.62267 5.96298 10.2083 7.91899 10.2083C9.87499 10.2083 11.4607 8.62267 11.4607 6.66667C11.4607 4.71066 9.87499 3.125 7.91899 3.125Z" fill="white"/>
<path d="M4.58565 13.125C4.47059 13.125 4.37732 13.2183 4.37732 13.3333V35C4.37732 35.1151 4.47059 35.2083 4.58565 35.2083H11.2523C11.3674 35.2083 11.4607 35.1151 11.4607 35V13.3333C11.4607 13.2183 11.3674 13.125 11.2523 13.125H4.58565Z" fill="white"/>
<path d="M15.419 13.125C15.3039 13.125 15.2107 13.2183 15.2107 13.3333V35C15.2107 35.1151 15.3039 35.2083 15.419 35.2083H22.0857C22.2007 35.2083 22.294 35.1151 22.294 35V23.3333C22.294 22.5045 22.6232 21.7097 23.2093 21.1236C23.7953 20.5376 24.5902 20.2083 25.419 20.2083C26.2478 20.2083 27.0426 20.5376 27.6287 21.1236C28.2147 21.7097 28.544 22.5045 28.544 23.3333V35C28.544 35.1151 28.6373 35.2083 28.7523 35.2083H35.419C35.534 35.2083 35.6273 35.1151 35.6273 35V20.6337C35.6273 16.5892 32.1096 13.425 28.0854 13.7908C26.8443 13.9037 25.6172 14.2122 24.4714 14.7032L22.294 15.6364V13.3333C22.294 13.2183 22.2007 13.125 22.0857 13.125H15.419Z" fill="white"/>
</svg>
